<svg xmlns="http://www.w3.org/2000/svg" xmlns:xlink="http://www.w3.org/1999/xlink" enable-background="new 0 0 256 256" xml:space="preserve">
<symbol viewBox="0 0 256 256" id="complete">
<g><g><path d="M128,9.9C62.8,9.9,10,62.8,10,128c0,65.2,52.8,118.1,118,118.1c65.2,0,118-52.9,118-118.1C246,62.8,193.2,9.9,128,9.9z M194.4,110.7l-70.8,70.9c-5.7,5.7-15.1,5.7-20.9,0l-36.1-36.2c-5.7-5.7-5.7-15.1,0-20.9l2.6-2.6c5.7-5.8,15.1-5.8,20.9,0l12.7,12.7c5.2,5.2,10.2,10.3,10.2,10.3s5.1-4.7,10.7-10.3l47.3-47.4c5.7-5.7,15.1-5.7,20.9,0l2.6,2.6C200.1,95.5,200.1,104.9,194.4,110.7z"/></g></g>
</symbol>
</svg>